<?xml version="1.0" encoding="UTF-8"?>
<svg xmlns="http://www.w3.org/2000/svg" width="1440" height="1024" viewBox="0 0 1440 1024">
<defs>
<style>
.bg { fill: #F7F7F8; }
.panel { fill: #FFFFFF; stroke: #D7D7DB; }
.subtle { fill: #FAFAFB; stroke: #E6E6EA; }
.primary { fill: #2563EB; }
.text { font-family: Inter, Arial, sans-serif; font-size: 14px; fill: #111827; }
.text-muted { font-family: Inter, Arial, sans-serif; font-size: 12px; fill: #6B7280; }
.title { font-family: Inter, Arial, sans-serif; font-size: 18px; font-weight: 600; fill: #111827; }
.h1 { font-family: Inter, Arial, sans-serif; font-size: 24px; font-weight: 700; fill: #111827; }
.chip { fill: #EEF2FF; stroke: #E0E7FF; }
.shadow { filter: drop-shadow(0 1px 1px rgba(0,0,0,0.06)) drop-shadow(0 4px 6px rgba(0,0,0,0.10)); }
</style>
</defs>
<rect class="bg" x="0" y="0" width="1440" height="1024" />
<rect x="0" y="0" width="1440" height="64" class="panel"/><text x="32" y="40" class="h1">TripThread</text><text x="160" y="40" class="title">Plan / Itinerary (List View)</text><rect x="0" y="64" width="224" height="960" class="panel"/><text x="32" y="120" class="text">Home</text><text x="32" y="168" class="text">Chat</text><text x="32" y="216" class="text title">Plan</text><text x="32" y="264" class="text">Expenses</text><text x="32" y="312" class="text">Files</text><text x="32" y="360" class="text">Settings</text><rect x="1080" y="88" width="280" height="40" rx="20" class="subtle"/><rect x="1220" y="88" width="120" height="40" rx="20" class="panel"/><text x="1100" y="114" class="text-muted">Calendar</text><text x="1250" y="114" class="text">List</text><g class="shadow"><rect x="248" y="140" width="1160" height="824" rx="16" class="panel"/></g><text x="272" y="176" class="title">Itinerary</text><text x="272" y="200" class="text-muted">Saturday, Apr 12</text><rect x="272" y="228" width="1104" height="48" rx="10" class="subtle"/><text x="288" y="256" class="text">08:30 · Breakfast near hotel</text><text x="1240" y="256" class="text-muted">Food</text><rect x="272" y="292" width="1104" height="48" rx="10" class="subtle"/><text x="288" y="320" class="text">10:20 · Flight to Lisbon</text><text x="1240" y="320" class="text-muted">Travel</text><rect x="272" y="356" width="1104" height="48" rx="10" class="subtle"/><text x="288" y="384" class="text">15:00 · Check-in at Airbnb</text><text x="1240" y="384" class="text-muted">Lodging</text><rect x="272" y="420" width="1104" height="48" rx="10" class="subtle"/><text x="288" y="448" class="text">19:30 · Dinner at TimeOut Market</text><text x="1240" y="448" class="text-muted">Food</text><text x="272" y="488" class="text-muted">Sunday, Apr 13</text><rect x="272" y="516" width="1104" height="48" rx="10" class="subtle"/><text x="288" y="544" class="text">09:00 · Walking tour in Alfama</text><text x="1240" y="544" class="text-muted">Activity</text><rect x="272" y="580" width="1104" height="48" rx="10" class="subtle"/><text x="288" y="608" class="text">13:00 · Lunch at O Trigueirinho</text><text x="1240" y="608" class="text-muted">Food</text><rect x="272" y="644" width="1104" height="48" rx="10" class="subtle"/><text x="288" y="672" class="text">18:00 · Sunset at Miradouro da Senhora do Monte</text><text x="1240" y="672" class="text-muted">Sightseeing</text><rect x="272" y="712" width="200" height="40" rx="10" class="chip"/><text x="292" y="738" class="text-muted">+ Add item</text><text x="24" y="1008" class="text-muted">Updated 2025-11-07 · TripThread</text></svg>