<?xml version="1.0" encoding="UTF-8"?>
<svg xmlns="http://www.w3.org/2000/svg" width="1440" height="1024" viewBox="0 0 1440 1024">
  <defs>
    <style>
      .bg { fill: #F7F7F8; }
      .panel { fill: #FFFFFF; stroke: #D7D7DB; }
      .subtle { fill: #FAFAFB; stroke: #E6E6EA; }
      .primary { fill: #2563EB; }
      .muted { fill: #6B7280; }
      .text { font-family: Inter, Arial, sans-serif; font-size: 14px; fill: #111827; }
      .text-sm { font-family: Inter, Arial, sans-serif; font-size: 12px; fill: #374151; }
      .text-muted { font-family: Inter, Arial, sans-serif; font-size: 12px; fill: #6B7280; }
      .title { font-family: Inter, Arial, sans-serif; font-size: 18px; font-weight: 600; fill: #111827; }
      .h1 { font-family: Inter, Arial, sans-serif; font-size: 24px; font-weight: 700; fill: #111827; }
      .chip { fill: #EEF2FF; stroke: #E0E7FF; }
      .shadow { filter: drop-shadow(0 1px 1px rgba(0,0,0,0.06)) drop-shadow(0 4px 6px rgba(0,0,0,0.10)); }
      .btn { fill: #2563EB; }
      .btn-text { font-family: Inter, Arial, sans-serif; font-size: 14px; fill: #FFFFFF; font-weight: 600; }
      .badge-dot { fill: #EF4444; }
      .iconline { fill: none; stroke: #6B7280; stroke-width: 1.5; stroke-linecap: round; stroke-linejoin: round; }
    </style>
  </defs>
  <rect class="bg" x="0" y="0" width="1440" height="1024" />

  <g>
    <rect x="0" y="0" width="1440" height="64" class="panel" />
    <text x="32" y="40" class="h1">TripThread</text>
    <rect x="820" y="16" width="360" height="32" rx="8" class="subtle" />
    <text x="840" y="36" class="text-muted">Search…</text>
    <circle cx="1392" cy="32" r="16" class="subtle" />
    <circle cx="1392" cy="32" r="6" class="muted" />
    <text x="150" y="40" class="title">Chat</text>
  </g>
<g class="shadow"><rect x="0" y="64" width="224" height="960" class="panel"/></g><rect x="16" y="96" width="192" height="36" rx="8" class="bg" /><text x="32" y="120" class="text">Home</text><rect x="16" y="144" width="192" height="36" rx="8" class="chip" /><text x="32" y="168" class="text title">Chat</text><rect x="16" y="192" width="192" height="36" rx="8" class="bg" /><text x="32" y="216" class="text">Plan</text><rect x="16" y="240" width="192" height="36" rx="8" class="bg" /><text x="32" y="264" class="text">Expenses</text><rect x="16" y="288" width="192" height="36" rx="8" class="bg" /><text x="32" y="312" class="text">Files</text><rect x="16" y="336" width="192" height="36" rx="8" class="bg" /><text x="32" y="360" class="text">Settings</text><g class="shadow"><rect x="248" y="96" width="1160" height="824" rx="16" class="panel"/></g><rect x="280" y="120" width="520" height="72" rx="12" class="subtle"/><text x="296" y="150" class="text">You:</text><text x="296" y="172" class="text-muted">Message content …</text><rect x="620" y="216" width="520" height="72" rx="12" class="subtle"/><text x="636" y="246" class="text">TripThread:</text><text x="636" y="268" class="text-muted">Message content …</text><rect x="280" y="312" width="520" height="72" rx="12" class="subtle"/><text x="296" y="342" class="text">You:</text><text x="296" y="364" class="text-muted">Message content …</text><rect x="620" y="408" width="520" height="72" rx="12" class="subtle"/><text x="636" y="438" class="text">TripThread:</text><text x="636" y="460" class="text-muted">Message content …</text><rect x="280" y="504" width="520" height="72" rx="12" class="subtle"/><text x="296" y="534" class="text">You:</text><text x="296" y="556" class="text-muted">Message content …</text><rect x="248" y="932" width="1000" height="60" rx="12" class="subtle"/><text x="264" y="968" class="text-muted">Ask about your trip…</text><rect x="984" y="940" width="44" height="44" rx="10" class="panel"/><path d="M 1006 958 v -10 m -8 8 l 8 -8 l 8 8" class="iconline"/>
  <g class="shadow"><rect x="1240" y="924" width="160" height="56" rx="10" class="btn" />
  <text x="1306.0" y="957.0" class="btn-text">Send</text></g>
<g><circle cx="268" cy="908" r="10" class="chip"/><text x="262" y="912" class="text-sm">?</text></g><text x="284" y="914" class="text-muted">Try: “Add to plan”, “Find brunch near Alfama”</text><text x="24" y="1008" class="text-muted">Updated 2025-11-06 · TripThread</text></svg>