<?xml version="1.0" encoding="UTF-8"?>
<svg xmlns="http://www.w3.org/2000/svg" width="1440" height="1024" viewBox="0 0 1440 1024">
<defs>
<style>
.bg { fill: #F7F7F8; }
.panel { fill: #FFFFFF; stroke: #D7D7DB; }
.subtle { fill: #FAFAFB; stroke: #E6E6EA; }
.primary { fill: #2563EB; }
.text { font-family: Inter, Arial, sans-serif; font-size: 14px; fill: #111827; }
.text-muted { font-family: Inter, Arial, sans-serif; font-size: 12px; fill: #6B7280; }
.title { font-family: Inter, Arial, sans-serif; font-size: 18px; font-weight: 600; fill: #111827; }
.h1 { font-family: Inter, Arial, sans-serif; font-size: 24px; font-weight: 700; fill: #111827; }
.shadow { filter: drop-shadow(0 1px 1px rgba(0,0,0,0.06)) drop-shadow(0 4px 6px rgba(0,0,0,0.10)); }
.chip { fill: #EEF2FF; stroke: #E0E7FF; }
</style>
</defs>
<rect class="bg" x="0" y="0" width="1440" height="1024" />
<rect x="0" y="0" width="1440" height="64" class="panel"/><text x="32" y="40" class="h1">TripThread</text><text x="160" y="40" class="title">Trip Overview</text><rect x="0" y="64" width="224" height="960" class="panel"/><text x="32" y="120" class="text title">Home</text><text x="32" y="168" class="text">Chat</text><text x="32" y="216" class="text">Plan</text><text x="32" y="264" class="text">Expenses</text><text x="32" y="312" class="text">Files</text><text x="32" y="360" class="text">Settings</text><g class="shadow"><rect x="248" y="96" width="1160" height="180" rx="16" class="panel"/></g><text x="272" y="140" class="h1">Lisbon with Friends</text><text x="272" y="168" class="text-muted">Apr 12–18 • 4 travellers</text><text x="940" y="140" class="title">Travellers</text><circle cx="960" cy="166" r="14" class="subtle"/><circle cx="996" cy="166" r="14" class="subtle"/><circle cx="1032" cy="166" r="14" class="subtle"/><circle cx="1068" cy="166" r="14" class="subtle"/><rect x="1104" y="150" width="100" height="28" rx="8" class="chip"/><text x="1120" y="170" class="text-muted">+ Add</text><text x="940" y="200" class="title">Viewers</text><circle cx="960" cy="226" r="12" class="subtle"/><circle cx="996" cy="226" r="12" class="subtle"/><rect x="1032" y="210" width="100" height="28" rx="8" class="chip"/><text x="1048" y="230" class="text-muted">+ Add</text><g class="shadow"><rect x="248" y="300" width="1160" height="664" rx="16" class="panel"/></g><text x="272" y="340" class="title">Trip Summary</text><text x="272" y="380" class="text-muted">Next Items</text><rect x="272" y="396" width="560" height="40" rx="10" class="subtle"/><text x="288" y="420" class="text">Apr 12 · Flight to Lisbon, 10:20</text><rect x="272" y="448" width="560" height="40" rx="10" class="subtle"/><text x="288" y="472" class="text">Apr 12 · Check-in at Airbnb, 15:00</text><rect x="272" y="500" width="560" height="40" rx="10" class="subtle"/><text x="288" y="524" class="text">Apr 13 · Dinner at TimeOut, 19:30</text><text x="272" y="580" class="text-muted">Notifications</text><rect x="272" y="596" width="560" height="36" rx="10" class="subtle"/><text x="288" y="618" class="text">2 new chat messages</text><rect x="272" y="640" width="560" height="36" rx="10" class="subtle"/><text x="288" y="662" class="text">1 new expense added by Bob</text><text x="272" y="700" class="text-muted">Expense Summary</text><rect x="272" y="716" width="560" height="140" rx="16" class="subtle"/><text x="292" y="750" class="text-muted">Total Spent</text><text x="292" y="778" class="title">€1,240</text><text x="472" y="750" class="text-muted">Your Share</text><text x="472" y="778" class="title">€310</text><text x="652" y="750" class="text-muted">Trip Cash Fund</text><text x="652" y="778" class="title">€450</text><text x="24" y="1008" class="text-muted">Updated 2025-11-06 · TripThread</text></svg>