<?xml version="1.0" encoding="UTF-8"?>
<svg xmlns="http://www.w3.org/2000/svg" width="1440" height="1024" viewBox="0 0 1440 1024">
  <defs>
    <style>
      .bg { fill: #F7F7F8; }
      .panel { fill: #FFFFFF; stroke: #D7D7DB; }
      .subtle { fill: #FAFAFB; stroke: #E6E6EA; }
      .primary { fill: #2563EB; }
      .muted { fill: #6B7280; }
      .text { font-family: Inter, Arial, sans-serif; font-size: 14px; fill: #111827; }
      .text-sm { font-family: Inter, Arial, sans-serif; font-size: 12px; fill: #374151; }
      .text-muted { font-family: Inter, Arial, sans-serif; font-size: 12px; fill: #6B7280; }
      .title { font-family: Inter, Arial, sans-serif; font-size: 18px; font-weight: 600; fill: #111827; }
      .h1 { font-family: Inter, Arial, sans-serif; font-size: 24px; font-weight: 700; fill: #111827; }
      .chip { fill: #EEF2FF; stroke: #E0E7FF; }
      .shadow { filter: drop-shadow(0 1px 1px rgba(0,0,0,0.06)) drop-shadow(0 4px 6px rgba(0,0,0,0.10)); }
      .btn { fill: #2563EB; }
      .btn-text { font-family: Inter, Arial, sans-serif; font-size: 14px; fill: #FFFFFF; font-weight: 600; }
      .badge-dot { fill: #EF4444; }
      .iconline { fill: none; stroke: #6B7280; stroke-width: 1.5; stroke-linecap: round; stroke-linejoin: round; }
    </style>
  </defs>
  <rect class="bg" x="0" y="0" width="1440" height="1024" />

  <g>
    <rect x="0" y="0" width="1440" height="64" class="panel" />
    <text x="32" y="40" class="h1">TripThread</text>
    <rect x="820" y="16" width="360" height="32" rx="8" class="subtle" />
    <text x="840" y="36" class="text-muted">Search…</text>
    <circle cx="1392" cy="32" r="16" class="subtle" />
    <circle cx="1392" cy="32" r="6" class="muted" />
    <text x="150" y="40" class="title">Settings</text>
  </g>
<g class="shadow"><rect x="0" y="64" width="224" height="960" class="panel"/></g><rect x="16" y="96" width="192" height="36" rx="8" class="bg" /><text x="32" y="120" class="text">Home</text><rect x="16" y="144" width="192" height="36" rx="8" class="bg" /><text x="32" y="168" class="text">Chat</text><rect x="16" y="192" width="192" height="36" rx="8" class="bg" /><text x="32" y="216" class="text">Plan</text><rect x="16" y="240" width="192" height="36" rx="8" class="bg" /><text x="32" y="264" class="text">Expenses</text><rect x="16" y="288" width="192" height="36" rx="8" class="bg" /><text x="32" y="312" class="text">Files</text><rect x="16" y="336" width="192" height="36" rx="8" class="chip" /><text x="32" y="360" class="text title">Settings</text><g class="shadow"><rect x="248" y="96" width="960" height="720" rx="16" class="panel"/></g><text x="272" y="132" class="h1">Profile</text><circle cx="320" cy="200" r="48" class="subtle"/><path d="M 320 180 v 40 M 300 200 h 40" class="iconline"/><text x="380" y="206" class="text-muted">Upload profile image</text><text x="272" y="260" class="text">Name</text><rect x="272" y="272" width="360" height="40" rx="10" class="subtle"/><text x="272" y="332" class="text">Email</text><rect x="272" y="344" width="360" height="40" rx="10" class="subtle"/>
  <g class="shadow"><rect x="272" y="404" width="160" height="44" rx="10" class="btn" />
  <text x="338.0" y="431.0" class="btn-text">Save</text></g>
<text x="24" y="1008" class="text-muted">Updated 2025-11-06 · TripThread</text></svg>