<?xml version="1.0" encoding="UTF-8"?>
<svg xmlns="http://www.w3.org/2000/svg" width="1440" height="1024" viewBox="0 0 1440 1024">
  <defs>
    <style>
      .bg { fill: #F7F7F8; }
      .panel { fill: #FFFFFF; stroke: #D7D7DB; }
      .subtle { fill: #FAFAFB; stroke: #E6E6EA; }
      .primary { fill: #2563EB; }
      .muted { fill: #6B7280; }
      .text { font-family: Inter, Arial, sans-serif; font-size: 14px; fill: #111827; }
      .text-sm { font-family: Inter, Arial, sans-serif; font-size: 12px; fill: #374151; }
      .text-muted { font-family: Inter, Arial, sans-serif; font-size: 12px; fill: #6B7280; }
      .title { font-family: Inter, Arial, sans-serif; font-size: 18px; font-weight: 600; fill: #111827; }
      .h1 { font-family: Inter, Arial, sans-serif; font-size: 24px; font-weight: 700; fill: #111827; }
      .chip { fill: #EEF2FF; stroke: #E0E7FF; }
      .shadow { filter: drop-shadow(0 1px 1px rgba(0,0,0,0.06)) drop-shadow(0 4px 6px rgba(0,0,0,0.10)); }
      .btn { fill: #2563EB; }
      .btn-text { font-family: Inter, Arial, sans-serif; font-size: 14px; fill: #FFFFFF; font-weight: 600; }
      .badge-dot { fill: #EF4444; }
      .iconline { fill: none; stroke: #6B7280; stroke-width: 1.5; stroke-linecap: round; stroke-linejoin: round; }
    </style>
  </defs>
  <rect class="bg" x="0" y="0" width="1440" height="1024" />

  <g>
    <rect x="0" y="0" width="1440" height="64" class="panel" />
    <text x="32" y="40" class="h1">TripThread</text>
    <rect x="820" y="16" width="360" height="32" rx="8" class="subtle" />
    <text x="840" y="36" class="text-muted">Search…</text>
    <circle cx="1392" cy="32" r="16" class="subtle" />
    <circle cx="1392" cy="32" r="6" class="muted" />
    <text x="150" y="40" class="title">Plan</text>
  </g>
<g class="shadow"><rect x="0" y="64" width="224" height="960" class="panel"/></g><rect x="16" y="96" width="192" height="36" rx="8" class="bg" /><text x="32" y="120" class="text">Home</text><rect x="16" y="144" width="192" height="36" rx="8" class="bg" /><text x="32" y="168" class="text">Chat</text><rect x="16" y="192" width="192" height="36" rx="8" class="chip" /><text x="32" y="216" class="text title">Plan</text><rect x="16" y="240" width="192" height="36" rx="8" class="bg" /><text x="32" y="264" class="text">Expenses</text><rect x="16" y="288" width="192" height="36" rx="8" class="bg" /><text x="32" y="312" class="text">Files</text><rect x="16" y="336" width="192" height="36" rx="8" class="bg" /><text x="32" y="360" class="text">Settings</text><rect x="1080" y="88" width="280" height="40" rx="20" class="subtle"/><rect x="1080" y="88" width="140" height="40" rx="20" class="panel"/><text x="1120" y="114" class="text">Calendar</text><text x="1230" y="114" class="text-muted">List</text><text x="248" y="140" class="text-muted">Times shown in CET (GMT+1)</text><g class="shadow"><rect x="248" y="156" width="1160" height="804" rx="16" class="panel"/></g><text x="260" y="184" class="text-muted">07:00</text><rect x="248" y="172" width="1160" height="1" class="subtle"/><text x="260" y="248" class="text-muted">09:00</text><rect x="248" y="236" width="1160" height="1" class="subtle"/><text x="260" y="312" class="text-muted">11:00</text><rect x="248" y="300" width="1160" height="1" class="subtle"/><text x="260" y="376" class="text-muted">13:00</text><rect x="248" y="364" width="1160" height="1" class="subtle"/><text x="260" y="440" class="text-muted">15:00</text><rect x="248" y="428" width="1160" height="1" class="subtle"/><text x="260" y="504" class="text-muted">17:00</text><rect x="248" y="492" width="1160" height="1" class="subtle"/><text x="260" y="568" class="text-muted">19:00</text><rect x="248" y="556" width="1160" height="1" class="subtle"/><text x="260" y="632" class="text-muted">21:00</text><rect x="248" y="620" width="1160" height="1" class="subtle"/><text x="320" y="176" class="text">Sat 12</text><rect x="312" y="184" width="140" height="764" rx="10" class="subtle"/><text x="470" y="176" class="text">Sun 13</text><rect x="462" y="184" width="140" height="764" rx="10" class="subtle"/><text x="620" y="176" class="text">Mon 14</text><rect x="612" y="184" width="140" height="764" rx="10" class="subtle"/><text x="770" y="176" class="text">Tue 15</text><rect x="762" y="184" width="140" height="764" rx="10" class="subtle"/><text x="920" y="176" class="text">Wed 16</text><rect x="912" y="184" width="140" height="764" rx="10" class="subtle"/><text x="1070" y="176" class="text">Thu 17</text><rect x="1062" y="184" width="140" height="764" rx="10" class="subtle"/><text x="1220" y="176" class="text">Fri 18</text><rect x="1212" y="184" width="140" height="764" rx="10" class="subtle"/><rect x="320" y="200" width="120" height="80" rx="10" class="panel"/><text x="332" y="228" class="text-sm">Flight → LIS</text><rect x="470" y="320" width="120" height="60" rx="10" class="panel"/><text x="482" y="348" class="text-sm">Check-in</text><rect x="620" y="360" width="120" height="80" rx="10" class="panel"/><text x="632" y="388" class="text-sm">Alfama tour</text><rect x="1070" y="520" width="120" height="60" rx="10" class="panel"/><text x="1082" y="548" class="text-sm">Dinner · TimeOut</text><text x="24" y="1008" class="text-muted">Updated 2025-11-06 · TripThread</text></svg>